<svg xmlns="http://www.w3.org/2000/svg" version="1.1" width="200mm" height="200mm" viewBox="0 0 200 200">
<g stroke="black">
<g transform="translate(-12.5,0)">	<g transform="translate(0,0)">
	<path d="M 2.0000000000000004 3.4641016151377544L34.73273171859443 9.235765369417713"></path>
	<g transform="rotate(120, 25, 14.433756729740645)"><path d="M 2.0000000000000004 3.4641016151377544L34.73273171859443 9.235765369417713"></path></g>
	<g transform="rotate(240, 25, 14.433756729740645)"><path d="M 2.0000000000000004 3.4641016151377544L34.73273171859443 9.235765369417713"></path></g>
	</g>
	<g transform="translate(0,43.30127018922193)translate(50,14.433756729740645)scale(-1,1)rotate(180, 25, 14.433756729740645)">
	<path d="M 2.0000000000000004 3.4641016151377544L34.73273171859443 9.235765369417713"></path>
	<g transform="rotate(120, 25, 14.433756729740645)"><path d="M 2.0000000000000004 3.4641016151377544L34.73273171859443 9.235765369417713"></path></g>
	<g transform="rotate(240, 25, 14.433756729740645)"><path d="M 2.0000000000000004 3.4641016151377544L34.73273171859443 9.235765369417713"></path></g>
	</g>
	<g transform="translate(0,86.60254037844386)">
	<path d="M 2.0000000000000004 3.4641016151377544L34.73273171859443 9.235765369417713"></path>
	<g transform="rotate(120, 25, 14.433756729740645)"><path d="M 2.0000000000000004 3.4641016151377544L34.73273171859443 9.235765369417713"></path></g>
	<g transform="rotate(240, 25, 14.433756729740645)"><path d="M 2.0000000000000004 3.4641016151377544L34.73273171859443 9.235765369417713"></path></g>
	</g>
	<g transform="translate(0,129.9038105676658)translate(50,14.433756729740645)scale(-1,1)rotate(180, 25, 14.433756729740645)">
	<path d="M 2.0000000000000004 3.4641016151377544L34.73273171859443 9.235765369417713"></path>
	<g transform="rotate(120, 25, 14.433756729740645)"><path d="M 2.0000000000000004 3.4641016151377544L34.73273171859443 9.235765369417713"></path></g>
	<g transform="rotate(240, 25, 14.433756729740645)"><path d="M 2.0000000000000004 3.4641016151377544L34.73273171859443 9.235765369417713"></path></g>
	</g>
	<g transform="translate(0,173.20508075688772)">
	<path d="M 2.0000000000000004 3.4641016151377544L34.73273171859443 9.235765369417713"></path>
	<g transform="rotate(120, 25, 14.433756729740645)"><path d="M 2.0000000000000004 3.4641016151377544L34.73273171859443 9.235765369417713"></path></g>
	<g transform="rotate(240, 25, 14.433756729740645)"><path d="M 2.0000000000000004 3.4641016151377544L34.73273171859443 9.235765369417713"></path></g>
	</g>
	<g transform="translate(25,0)translate(50,14.433756729740645)scale(-1,1)rotate(180, 25, 14.433756729740645)">
	<path d="M 2.0000000000000004 3.4641016151377544L34.73273171859443 9.235765369417713"></path>
	<g transform="rotate(120, 25, 14.433756729740645)"><path d="M 2.0000000000000004 3.4641016151377544L34.73273171859443 9.235765369417713"></path></g>
	<g transform="rotate(240, 25, 14.433756729740645)"><path d="M 2.0000000000000004 3.4641016151377544L34.73273171859443 9.235765369417713"></path></g>
	</g>
	<g transform="translate(25,43.30127018922193)">
	<path d="M 2.0000000000000004 3.4641016151377544L34.73273171859443 9.235765369417713"></path>
	<g transform="rotate(120, 25, 14.433756729740645)"><path d="M 2.0000000000000004 3.4641016151377544L34.73273171859443 9.235765369417713"></path></g>
	<g transform="rotate(240, 25, 14.433756729740645)"><path d="M 2.0000000000000004 3.4641016151377544L34.73273171859443 9.235765369417713"></path></g>
	</g>
	<g transform="translate(25,86.60254037844386)translate(50,14.433756729740645)scale(-1,1)rotate(180, 25, 14.433756729740645)">
	<path d="M 2.0000000000000004 3.4641016151377544L34.73273171859443 9.235765369417713"></path>
	<g transform="rotate(120, 25, 14.433756729740645)"><path d="M 2.0000000000000004 3.4641016151377544L34.73273171859443 9.235765369417713"></path></g>
	<g transform="rotate(240, 25, 14.433756729740645)"><path d="M 2.0000000000000004 3.4641016151377544L34.73273171859443 9.235765369417713"></path></g>
	</g>
	<g transform="translate(25,129.9038105676658)">
	<path d="M 2.0000000000000004 3.4641016151377544L34.73273171859443 9.235765369417713"></path>
	<g transform="rotate(120, 25, 14.433756729740645)"><path d="M 2.0000000000000004 3.4641016151377544L34.73273171859443 9.235765369417713"></path></g>
	<g transform="rotate(240, 25, 14.433756729740645)"><path d="M 2.0000000000000004 3.4641016151377544L34.73273171859443 9.235765369417713"></path></g>
	</g>
	<g transform="translate(25,173.20508075688772)translate(50,14.433756729740645)scale(-1,1)rotate(180, 25, 14.433756729740645)">
	<path d="M 2.0000000000000004 3.4641016151377544L34.73273171859443 9.235765369417713"></path>
	<g transform="rotate(120, 25, 14.433756729740645)"><path d="M 2.0000000000000004 3.4641016151377544L34.73273171859443 9.235765369417713"></path></g>
	<g transform="rotate(240, 25, 14.433756729740645)"><path d="M 2.0000000000000004 3.4641016151377544L34.73273171859443 9.235765369417713"></path></g>
	</g>
	<g transform="translate(50,0)">
	<path d="M 2.0000000000000004 3.4641016151377544L34.73273171859443 9.235765369417713"></path>
	<g transform="rotate(120, 25, 14.433756729740645)"><path d="M 2.0000000000000004 3.4641016151377544L34.73273171859443 9.235765369417713"></path></g>
	<g transform="rotate(240, 25, 14.433756729740645)"><path d="M 2.0000000000000004 3.4641016151377544L34.73273171859443 9.235765369417713"></path></g>
	</g>
	<g transform="translate(50,43.30127018922193)translate(50,14.433756729740645)scale(-1,1)rotate(180, 25, 14.433756729740645)">
	<path d="M 2.0000000000000004 3.4641016151377544L34.73273171859443 9.235765369417713"></path>
	<g transform="rotate(120, 25, 14.433756729740645)"><path d="M 2.0000000000000004 3.4641016151377544L34.73273171859443 9.235765369417713"></path></g>
	<g transform="rotate(240, 25, 14.433756729740645)"><path d="M 2.0000000000000004 3.4641016151377544L34.73273171859443 9.235765369417713"></path></g>
	</g>
	<g transform="translate(50,86.60254037844386)">
	<path d="M 2.0000000000000004 3.4641016151377544L34.73273171859443 9.235765369417713"></path>
	<g transform="rotate(120, 25, 14.433756729740645)"><path d="M 2.0000000000000004 3.4641016151377544L34.73273171859443 9.235765369417713"></path></g>
	<g transform="rotate(240, 25, 14.433756729740645)"><path d="M 2.0000000000000004 3.4641016151377544L34.73273171859443 9.235765369417713"></path></g>
	</g>
	<g transform="translate(50,129.9038105676658)translate(50,14.433756729740645)scale(-1,1)rotate(180, 25, 14.433756729740645)">
	<path d="M 2.0000000000000004 3.4641016151377544L34.73273171859443 9.235765369417713"></path>
	<g transform="rotate(120, 25, 14.433756729740645)"><path d="M 2.0000000000000004 3.4641016151377544L34.73273171859443 9.235765369417713"></path></g>
	<g transform="rotate(240, 25, 14.433756729740645)"><path d="M 2.0000000000000004 3.4641016151377544L34.73273171859443 9.235765369417713"></path></g>
	</g>
	<g transform="translate(50,173.20508075688772)">
	<path d="M 2.0000000000000004 3.4641016151377544L34.73273171859443 9.235765369417713"></path>
	<g transform="rotate(120, 25, 14.433756729740645)"><path d="M 2.0000000000000004 3.4641016151377544L34.73273171859443 9.235765369417713"></path></g>
	<g transform="rotate(240, 25, 14.433756729740645)"><path d="M 2.0000000000000004 3.4641016151377544L34.73273171859443 9.235765369417713"></path></g>
	</g>
	<g transform="translate(75,0)translate(50,14.433756729740645)scale(-1,1)rotate(180, 25, 14.433756729740645)">
	<path d="M 2.0000000000000004 3.4641016151377544L34.73273171859443 9.235765369417713"></path>
	<g transform="rotate(120, 25, 14.433756729740645)"><path d="M 2.0000000000000004 3.4641016151377544L34.73273171859443 9.235765369417713"></path></g>
	<g transform="rotate(240, 25, 14.433756729740645)"><path d="M 2.0000000000000004 3.4641016151377544L34.73273171859443 9.235765369417713"></path></g>
	</g>
	<g transform="translate(75,43.30127018922193)">
	<path d="M 2.0000000000000004 3.4641016151377544L34.73273171859443 9.235765369417713"></path>
	<g transform="rotate(120, 25, 14.433756729740645)"><path d="M 2.0000000000000004 3.4641016151377544L34.73273171859443 9.235765369417713"></path></g>
	<g transform="rotate(240, 25, 14.433756729740645)"><path d="M 2.0000000000000004 3.4641016151377544L34.73273171859443 9.235765369417713"></path></g>
	</g>
	<g transform="translate(75,86.60254037844386)translate(50,14.433756729740645)scale(-1,1)rotate(180, 25, 14.433756729740645)">
	<path d="M 2.0000000000000004 3.4641016151377544L34.73273171859443 9.235765369417713"></path>
	<g transform="rotate(120, 25, 14.433756729740645)"><path d="M 2.0000000000000004 3.4641016151377544L34.73273171859443 9.235765369417713"></path></g>
	<g transform="rotate(240, 25, 14.433756729740645)"><path d="M 2.0000000000000004 3.4641016151377544L34.73273171859443 9.235765369417713"></path></g>
	</g>
	<g transform="translate(75,129.9038105676658)">
	<path d="M 2.0000000000000004 3.4641016151377544L34.73273171859443 9.235765369417713"></path>
	<g transform="rotate(120, 25, 14.433756729740645)"><path d="M 2.0000000000000004 3.4641016151377544L34.73273171859443 9.235765369417713"></path></g>
	<g transform="rotate(240, 25, 14.433756729740645)"><path d="M 2.0000000000000004 3.4641016151377544L34.73273171859443 9.235765369417713"></path></g>
	</g>
	<g transform="translate(75,173.20508075688772)translate(50,14.433756729740645)scale(-1,1)rotate(180, 25, 14.433756729740645)">
	<path d="M 2.0000000000000004 3.4641016151377544L34.73273171859443 9.235765369417713"></path>
	<g transform="rotate(120, 25, 14.433756729740645)"><path d="M 2.0000000000000004 3.4641016151377544L34.73273171859443 9.235765369417713"></path></g>
	<g transform="rotate(240, 25, 14.433756729740645)"><path d="M 2.0000000000000004 3.4641016151377544L34.73273171859443 9.235765369417713"></path></g>
	</g>
	<g transform="translate(100,0)">
	<path d="M 2.0000000000000004 3.4641016151377544L34.73273171859443 9.235765369417713"></path>
	<g transform="rotate(120, 25, 14.433756729740645)"><path d="M 2.0000000000000004 3.4641016151377544L34.73273171859443 9.235765369417713"></path></g>
	<g transform="rotate(240, 25, 14.433756729740645)"><path d="M 2.0000000000000004 3.4641016151377544L34.73273171859443 9.235765369417713"></path></g>
	</g>
	<g transform="translate(100,43.30127018922193)translate(50,14.433756729740645)scale(-1,1)rotate(180, 25, 14.433756729740645)">
	<path d="M 2.0000000000000004 3.4641016151377544L34.73273171859443 9.235765369417713"></path>
	<g transform="rotate(120, 25, 14.433756729740645)"><path d="M 2.0000000000000004 3.4641016151377544L34.73273171859443 9.235765369417713"></path></g>
	<g transform="rotate(240, 25, 14.433756729740645)"><path d="M 2.0000000000000004 3.4641016151377544L34.73273171859443 9.235765369417713"></path></g>
	</g>
	<g transform="translate(100,86.60254037844386)">
	<path d="M 2.0000000000000004 3.4641016151377544L34.73273171859443 9.235765369417713"></path>
	<g transform="rotate(120, 25, 14.433756729740645)"><path d="M 2.0000000000000004 3.4641016151377544L34.73273171859443 9.235765369417713"></path></g>
	<g transform="rotate(240, 25, 14.433756729740645)"><path d="M 2.0000000000000004 3.4641016151377544L34.73273171859443 9.235765369417713"></path></g>
	</g>
	<g transform="translate(100,129.9038105676658)translate(50,14.433756729740645)scale(-1,1)rotate(180, 25, 14.433756729740645)">
	<path d="M 2.0000000000000004 3.4641016151377544L34.73273171859443 9.235765369417713"></path>
	<g transform="rotate(120, 25, 14.433756729740645)"><path d="M 2.0000000000000004 3.4641016151377544L34.73273171859443 9.235765369417713"></path></g>
	<g transform="rotate(240, 25, 14.433756729740645)"><path d="M 2.0000000000000004 3.4641016151377544L34.73273171859443 9.235765369417713"></path></g>
	</g>
	<g transform="translate(100,173.20508075688772)">
	<path d="M 2.0000000000000004 3.4641016151377544L34.73273171859443 9.235765369417713"></path>
	<g transform="rotate(120, 25, 14.433756729740645)"><path d="M 2.0000000000000004 3.4641016151377544L34.73273171859443 9.235765369417713"></path></g>
	<g transform="rotate(240, 25, 14.433756729740645)"><path d="M 2.0000000000000004 3.4641016151377544L34.73273171859443 9.235765369417713"></path></g>
	</g>
	<g transform="translate(125,0)translate(50,14.433756729740645)scale(-1,1)rotate(180, 25, 14.433756729740645)">
	<path d="M 2.0000000000000004 3.4641016151377544L34.73273171859443 9.235765369417713"></path>
	<g transform="rotate(120, 25, 14.433756729740645)"><path d="M 2.0000000000000004 3.4641016151377544L34.73273171859443 9.235765369417713"></path></g>
	<g transform="rotate(240, 25, 14.433756729740645)"><path d="M 2.0000000000000004 3.4641016151377544L34.73273171859443 9.235765369417713"></path></g>
	</g>
	<g transform="translate(125,43.30127018922193)">
	<path d="M 2.0000000000000004 3.4641016151377544L34.73273171859443 9.235765369417713"></path>
	<g transform="rotate(120, 25, 14.433756729740645)"><path d="M 2.0000000000000004 3.4641016151377544L34.73273171859443 9.235765369417713"></path></g>
	<g transform="rotate(240, 25, 14.433756729740645)"><path d="M 2.0000000000000004 3.4641016151377544L34.73273171859443 9.235765369417713"></path></g>
	</g>
	<g transform="translate(125,86.60254037844386)translate(50,14.433756729740645)scale(-1,1)rotate(180, 25, 14.433756729740645)">
	<path d="M 2.0000000000000004 3.4641016151377544L34.73273171859443 9.235765369417713"></path>
	<g transform="rotate(120, 25, 14.433756729740645)"><path d="M 2.0000000000000004 3.4641016151377544L34.73273171859443 9.235765369417713"></path></g>
	<g transform="rotate(240, 25, 14.433756729740645)"><path d="M 2.0000000000000004 3.4641016151377544L34.73273171859443 9.235765369417713"></path></g>
	</g>
	<g transform="translate(125,129.9038105676658)">
	<path d="M 2.0000000000000004 3.4641016151377544L34.73273171859443 9.235765369417713"></path>
	<g transform="rotate(120, 25, 14.433756729740645)"><path d="M 2.0000000000000004 3.4641016151377544L34.73273171859443 9.235765369417713"></path></g>
	<g transform="rotate(240, 25, 14.433756729740645)"><path d="M 2.0000000000000004 3.4641016151377544L34.73273171859443 9.235765369417713"></path></g>
	</g>
	<g transform="translate(125,173.20508075688772)translate(50,14.433756729740645)scale(-1,1)rotate(180, 25, 14.433756729740645)">
	<path d="M 2.0000000000000004 3.4641016151377544L34.73273171859443 9.235765369417713"></path>
	<g transform="rotate(120, 25, 14.433756729740645)"><path d="M 2.0000000000000004 3.4641016151377544L34.73273171859443 9.235765369417713"></path></g>
	<g transform="rotate(240, 25, 14.433756729740645)"><path d="M 2.0000000000000004 3.4641016151377544L34.73273171859443 9.235765369417713"></path></g>
	</g>
	<g transform="translate(150,0)">
	<path d="M 2.0000000000000004 3.4641016151377544L34.73273171859443 9.235765369417713"></path>
	<g transform="rotate(120, 25, 14.433756729740645)"><path d="M 2.0000000000000004 3.4641016151377544L34.73273171859443 9.235765369417713"></path></g>
	<g transform="rotate(240, 25, 14.433756729740645)"><path d="M 2.0000000000000004 3.4641016151377544L34.73273171859443 9.235765369417713"></path></g>
	</g>
	<g transform="translate(150,43.30127018922193)translate(50,14.433756729740645)scale(-1,1)rotate(180, 25, 14.433756729740645)">
	<path d="M 2.0000000000000004 3.4641016151377544L34.73273171859443 9.235765369417713"></path>
	<g transform="rotate(120, 25, 14.433756729740645)"><path d="M 2.0000000000000004 3.4641016151377544L34.73273171859443 9.235765369417713"></path></g>
	<g transform="rotate(240, 25, 14.433756729740645)"><path d="M 2.0000000000000004 3.4641016151377544L34.73273171859443 9.235765369417713"></path></g>
	</g>
	<g transform="translate(150,86.60254037844386)">
	<path d="M 2.0000000000000004 3.4641016151377544L34.73273171859443 9.235765369417713"></path>
	<g transform="rotate(120, 25, 14.433756729740645)"><path d="M 2.0000000000000004 3.4641016151377544L34.73273171859443 9.235765369417713"></path></g>
	<g transform="rotate(240, 25, 14.433756729740645)"><path d="M 2.0000000000000004 3.4641016151377544L34.73273171859443 9.235765369417713"></path></g>
	</g>
	<g transform="translate(150,129.9038105676658)translate(50,14.433756729740645)scale(-1,1)rotate(180, 25, 14.433756729740645)">
	<path d="M 2.0000000000000004 3.4641016151377544L34.73273171859443 9.235765369417713"></path>
	<g transform="rotate(120, 25, 14.433756729740645)"><path d="M 2.0000000000000004 3.4641016151377544L34.73273171859443 9.235765369417713"></path></g>
	<g transform="rotate(240, 25, 14.433756729740645)"><path d="M 2.0000000000000004 3.4641016151377544L34.73273171859443 9.235765369417713"></path></g>
	</g>
	<g transform="translate(150,173.20508075688772)">
	<path d="M 2.0000000000000004 3.4641016151377544L34.73273171859443 9.235765369417713"></path>
	<g transform="rotate(120, 25, 14.433756729740645)"><path d="M 2.0000000000000004 3.4641016151377544L34.73273171859443 9.235765369417713"></path></g>
	<g transform="rotate(240, 25, 14.433756729740645)"><path d="M 2.0000000000000004 3.4641016151377544L34.73273171859443 9.235765369417713"></path></g>
	</g>
	<g transform="translate(175,0)translate(50,14.433756729740645)scale(-1,1)rotate(180, 25, 14.433756729740645)">
	<path d="M 2.0000000000000004 3.4641016151377544L34.73273171859443 9.235765369417713"></path>
	<g transform="rotate(120, 25, 14.433756729740645)"><path d="M 2.0000000000000004 3.4641016151377544L34.73273171859443 9.235765369417713"></path></g>
	<g transform="rotate(240, 25, 14.433756729740645)"><path d="M 2.0000000000000004 3.4641016151377544L34.73273171859443 9.235765369417713"></path></g>
	</g>
	<g transform="translate(175,43.30127018922193)">
	<path d="M 2.0000000000000004 3.4641016151377544L34.73273171859443 9.235765369417713"></path>
	<g transform="rotate(120, 25, 14.433756729740645)"><path d="M 2.0000000000000004 3.4641016151377544L34.73273171859443 9.235765369417713"></path></g>
	<g transform="rotate(240, 25, 14.433756729740645)"><path d="M 2.0000000000000004 3.4641016151377544L34.73273171859443 9.235765369417713"></path></g>
	</g>
	<g transform="translate(175,86.60254037844386)translate(50,14.433756729740645)scale(-1,1)rotate(180, 25, 14.433756729740645)">
	<path d="M 2.0000000000000004 3.4641016151377544L34.73273171859443 9.235765369417713"></path>
	<g transform="rotate(120, 25, 14.433756729740645)"><path d="M 2.0000000000000004 3.4641016151377544L34.73273171859443 9.235765369417713"></path></g>
	<g transform="rotate(240, 25, 14.433756729740645)"><path d="M 2.0000000000000004 3.4641016151377544L34.73273171859443 9.235765369417713"></path></g>
	</g>
	<g transform="translate(175,129.9038105676658)">
	<path d="M 2.0000000000000004 3.4641016151377544L34.73273171859443 9.235765369417713"></path>
	<g transform="rotate(120, 25, 14.433756729740645)"><path d="M 2.0000000000000004 3.4641016151377544L34.73273171859443 9.235765369417713"></path></g>
	<g transform="rotate(240, 25, 14.433756729740645)"><path d="M 2.0000000000000004 3.4641016151377544L34.73273171859443 9.235765369417713"></path></g>
	</g>
	<g transform="translate(175,173.20508075688772)translate(50,14.433756729740645)scale(-1,1)rotate(180, 25, 14.433756729740645)">
	<path d="M 2.0000000000000004 3.4641016151377544L34.73273171859443 9.235765369417713"></path>
	<g transform="rotate(120, 25, 14.433756729740645)"><path d="M 2.0000000000000004 3.4641016151377544L34.73273171859443 9.235765369417713"></path></g>
	<g transform="rotate(240, 25, 14.433756729740645)"><path d="M 2.0000000000000004 3.4641016151377544L34.73273171859443 9.235765369417713"></path></g>
	</g>
</g><rect width="200" height="200" fill="none"></rect>
</g>
</svg>
